<svg width="20" height="14" viewBox="0 0 20 14" fill="none" xmlns="http://www.w3.org/2000/svg">
<path fill-rule="evenodd" clip-rule="evenodd" d="M17.8571 0H2.14286C0.959388 0 0 0.940202 0 2.1V11.9C0 13.0598 0.959388 14 2.14286 14H17.8571C19.0406 14 20 13.0598 20 11.9V2.1C20 0.940202 19.0406 0 17.8571 0ZM18.5714 8.11019L14.0764 3.70511C13.7975 3.43182 13.3453 3.43182 13.0664 3.70511L7.14287 9.51018L4.79071 7.20506C4.5118 6.93177 4.05962 6.93177 3.78072 7.20506L1.42856 9.51018V2.1C1.42856 1.71339 1.74835 1.39999 2.14286 1.39999H17.8571C18.2516 1.39999 18.5714 1.71339 18.5714 2.1V8.11019H18.5714ZM6.42857 6.99998C7.61203 6.99998 8.57142 6.05978 8.57142 4.89998C8.57142 3.74018 7.61203 2.79998 6.42857 2.79998C5.2451 2.79998 4.28571 3.74018 4.28571 4.89998C4.28571 6.05978 5.2451 6.99998 6.42857 6.99998Z" fill="#F61D80"/>
</svg>
