<svg width="17" height="20" viewBox="0 0 17 20" fill="none" xmlns="http://www.w3.org/2000/svg">
<path fill-rule="evenodd" clip-rule="evenodd" d="M0 8.15026C0 3.64909 3.80568 0 8.5 0C13.1943 0 17 3.64909 17 8.15026C17 12.721 12.9811 15.2598 11.3683 16.2787C11.0898 16.4547 10.883 16.5853 10.7811 16.6732C10.074 17.2837 9.48986 18.65 9.25418 19.425C9.13982 19.8007 8.81914 19.9911 8.5 20C8.18164 19.9918 7.86018 19.8014 7.74582 19.425C7.51014 18.65 6.92595 17.283 6.21891 16.6732C6.11696 16.5853 5.91021 16.4547 5.63172 16.2787C4.01887 15.2598 0 12.721 0 8.15026ZM6.18182 8.15026C6.18182 9.37799 7.21959 10.3731 8.5 10.3731C9.78041 10.3731 10.8182 9.37799 10.8182 8.15026C10.8182 6.92254 9.78041 5.92746 8.5 5.92746C7.21959 5.92746 6.18182 6.92254 6.18182 8.15026Z" fill="#343DFF"/>
</svg>
