<svg width="20" height="12" viewBox="0 0 20 12" fill="none" xmlns="http://www.w3.org/2000/svg">
<path fill-rule="evenodd" clip-rule="evenodd" d="M11.3129 0H2.18818C0.984683 0 0 1.00559 0 2.23464V9.76536C0 10.9944 0.984683 12 2.18818 12H11.3129C12.5164 12 13.5011 10.9944 13.5011 9.76536V2.23464C13.5011 0.98324 12.5164 0 11.3129 0ZM18.3807 1.22905C18.2495 1.2514 18.1182 1.31844 18.0088 1.38547L14.5952 3.39665V8.58101L18.0306 10.5922C18.6652 10.9721 19.453 10.7486 19.8249 10.1006C19.9344 9.89944 20 9.67598 20 9.43017V2.52514C20 1.69832 19.2341 1.02793 18.3807 1.22905Z" fill="#8774FF"/>
</svg>
