<svg width="20" height="19" viewBox="0 0 20 19" fill="none" xmlns="http://www.w3.org/2000/svg">
<path fill-rule="evenodd" clip-rule="evenodd" d="M0 8.36C0 3.743 4.47692 0 10 0C15.5231 0 20 3.743 20 8.36C20 12.977 15.5231 16.72 10 16.72C9.25231 16.72 8.52462 16.6508 7.82462 16.5194C7.34692 16.4304 6.86231 16.5961 6.51462 16.9313C5.41154 17.9938 3.81 19 1.92308 19C1.71066 19 1.53846 18.8299 1.53846 18.62C1.53846 18.4538 1.64651 18.3125 1.797 18.2609C3.42005 17.5162 3.60295 15.9072 3.54769 14.7417C1.38 13.208 0 10.9197 0 8.36Z" fill="#666666"/>
</svg>
