<svg width="24" height="23" viewBox="0 0 24 23" fill="none" xmlns="http://www.w3.org/2000/svg">
<path fill-rule="evenodd" clip-rule="evenodd" d="M18.7159 11.1917C18.721 11.1933 18.7256 11.1948 18.7294 11.196C21.2108 12.0272 23.9991 13.5945 24 15.1996V15.7835C24 17.5344 21.2718 18.1699 18.2043 18.3397C17.3334 16.0796 14.2909 14.6009 12.3439 13.8657C13.5661 12.4008 14.7347 10.1306 14.7347 7.64268C14.7347 5.31252 13.8065 3.58196 12.4576 2.47038C13.1002 0.846829 14.5322 0 16.1945 0C18.4521 0 20.3103 1.5516 20.3103 4.51181C20.3103 6.43517 19.5069 8.39265 18.3421 9.60663H18.3476C17.9163 10.9369 18.5692 11.1449 18.7159 11.1917ZM10.592 13.0641C10.1168 14.528 10.8767 15.3066 10.9978 15.3462C13.6373 16.2309 16.6031 17.8969 16.6031 19.6053V20.227C16.6031 22.4862 12.3328 23 8.32604 23C4.32388 23 0 22.4862 0 20.227V19.6053C0 17.9476 2.951 16.2669 5.46564 15.3462C5.64777 15.278 6.51587 14.3684 6.03051 13.0788C4.78521 11.7874 3.81356 9.6998 3.81356 7.64361C3.81356 4.49613 5.8983 2.84583 8.302 2.84583C10.7039 2.84583 12.8847 4.49613 12.8847 7.64361C12.8847 9.69242 11.8243 11.7717 10.5855 13.0641H10.592Z" fill="#C8C7CC"/>
</svg>
