<svg width="175" height="48" viewBox="0 0 175 48" fill="none" xmlns="http://www.w3.org/2000/svg">
<path fill-rule="evenodd" clip-rule="evenodd" d="M7.68504 37.9121H0V1.2451H24.0476V7.57226H7.68504V17.406H22.6225V23.4791H7.68504V37.9121ZM27.941 37.9121V10.6723H35.1171V15.5765H35.2697C36.2367 12.1207 38.5524 10.2403 41.7588 10.2403C42.624 10.2403 43.3619 10.3674 43.8709 10.5199V17.0503C43.2601 16.7962 42.2423 16.6183 41.1735 16.6183C37.5091 16.6183 35.3715 18.8544 35.3715 22.6914V37.9121H27.941ZM47.0263 37.9121V10.6723H54.4569V37.9121H47.0263ZM50.7416 7.6739C48.5023 7.6739 46.7718 5.97141 46.7718 3.83695C46.7718 1.67708 48.5023 0 50.7416 0C52.9809 0 54.7114 1.67708 54.7114 3.83695C54.7114 5.97141 52.9809 7.6739 50.7416 7.6739ZM71.6337 15.5765C68.3765 15.5765 66.0353 18.0413 65.7809 21.4463H77.3593C77.2066 17.9651 74.9418 15.5765 71.6337 15.5765ZM77.4611 29.5776H84.2809C83.4666 34.9137 78.5808 38.4966 71.8373 38.4966C63.4397 38.4966 58.4012 33.135 58.4012 24.4193C58.4012 15.729 63.4906 10.0879 71.5574 10.0879C79.4969 10.0879 84.51 15.4494 84.51 23.7332V25.9947H65.7045V26.4521C65.7045 30.3399 68.1729 33.0079 71.9645 33.0079C74.6874 33.0079 76.774 31.6612 77.4611 29.5776ZM88.327 37.9121V10.6723H95.5031V15.5257H95.6558C97.1063 12.1461 99.9818 10.1641 104.181 10.1641C110.237 10.1641 113.647 13.9756 113.647 20.3536V37.9121H106.216V21.9037C106.216 18.3462 104.537 16.3134 101.203 16.3134C97.8697 16.3134 95.7576 18.7528 95.7576 22.2848V37.9121H88.327ZM128.483 38.3441C121.663 38.3441 117.362 32.9571 117.362 24.2414C117.362 15.6019 121.688 10.2403 128.534 10.2403C132.478 10.2403 135.531 12.324 136.855 15.3478H137.007V1.2451H144.438V37.9121H137.109V33.2366H136.982C135.659 36.235 132.503 38.3441 128.483 38.3441ZM131.002 16.1863C127.261 16.1863 124.971 19.3118 124.971 24.2922C124.971 29.298 127.261 32.3727 131.002 32.3727C134.692 32.3727 137.058 29.2726 137.058 24.2922C137.058 19.3372 134.692 16.1863 131.002 16.1863ZM152.886 48C152.632 48 150.316 47.9746 150.087 47.9238V42.2065C150.316 42.2573 151.665 42.2573 151.945 42.2573C154.668 42.2573 156.016 41.3933 156.525 39.2335C156.525 39.1318 156.805 38.0392 156.754 37.9375L147.263 10.6723H155.431L161.233 31.9661H161.36L167.162 10.6723H175L165.61 38.522C163.269 45.5098 159.859 48 152.886 48Z" fill="white"/>
</svg>
